<?xml version="1.0" encoding="UTF-8"?>
<svg id="Layer_1" data-name="Layer 1" xmlns="http://www.w3.org/2000/svg" viewBox="0 0 612 792">
  <defs>
    <style>
      .cls-1 {
        fill: #fff;
        stroke: #231f20;
        stroke-miterlimit: 10;
        stroke-width: .15px;
      }

      .cls-2 {
        fill: #231f20;
      }
    </style>
  </defs>
  <g id="Layer_2" data-name="Layer 2">
    <path class="cls-1" d="M190.92,216.21l272.47-.24c17.99,3.35,31.47,16.99,33.49,35.4v265.55c-1.38,19.21-16.45,34.32-35.46,36.42H195.64c-18.84-1.35-34.11-15.81-36.46-34.42l.05-269.49c2.28-16.68,15.33-29.88,31.69-33.2ZM424.93,324.76c-28.26-.92-52.45-24.19-55.12-52.21l-1.31-1.68h-30.97l-1.5,1.5v162.67c0,1.34-2.92,8.45-3.82,10.16-9.86,18.83-36.9,24.27-53.6,11.27-27.92-21.74-9.42-66.07,25.45-61.85v-34.93c-50.43-1.67-87,46.81-68.41,94.79,20.02,51.67,91.07,59.1,121.76,12.9,4.51-6.78,11.58-22.42,11.58-30.35v-99.3c13.54,17.64,33.42,27.42,55.94,25.95v-38.92Z"/>
    <path class="cls-2" d="M424.93,324.76c-28.26-.92-52.45-24.19-55.12-52.21l-1.31-1.68h-30.97l-1.5,1.5v162.67c0,1.34-2.92,8.45-3.82,10.16-9.86,18.83-36.9,24.27-53.6,11.27-27.92-21.74-9.42-66.07,25.45-61.85v-34.93c-50.43-1.67-87,46.81-68.41,94.79,20.02,51.67,91.07,59.1,121.76,12.9,4.51-6.78,11.58-22.42,11.58-30.35v-99.3c13.54,17.64,33.42,27.42,55.94,25.95v-38.92Z"/>
  </g>
</svg>