<?xml version="1.0" encoding="UTF-8"?>
<svg id="Layer_4" data-name="Layer 4" xmlns="http://www.w3.org/2000/svg" viewBox="0 0 683.46 671.88">
  <defs>
    <style>
      .cls-1 {
        fill: #fff;
      }

      .cls-2 {
        fill: #f7f6f5;
      }
    </style>
  </defs>
  <path class="cls-2" d="M515.84,103.55c-.06,1.68-.3,1.32,1.18,1.44,19.47,1.53,40.89-1.3,60.5,0,.85.06,5.75.73,5.94,1.02l.06,3.77,9.6.48v4.32s4.83.21,4.83.21l.45,4.59,9.6.48v4.8s4.8,0,4.8,0v4.8s4.59.45,4.59.45l.21,4.35c4.42-.59,5.15,6.26,4.8,9.6l2.46.28c.62,2.45,1.62,4.9,2.12,7.37s.47,5.25,1.18,7.69v320.46l-1.68,9.6c-6.59,25.41-29.05,43.93-55.21,46.05l-503.54.03c-2.98-.17-13.01-1.59-15.27-2.97-.99-.6-.57-1.74-1.08-1.88-.97-.27-2.76.27-4.15-.08-.25-.06-4.46-2.13-4.6-2.36-.32-.53.02-1.65-.08-2.33l-4.83-.21-.45-4.59h-4.8s0-4.8,0-4.8h-4.8s0-5.28,0-5.28h-4.8s-.48-9.11-.48-9.11h-4.32s-.21-4.83-.21-4.83l-3.31-.53c-.94-.31-1.18-1.66-1.29-2.55-.18-1.55-.04-11.36-.47-11.76l-2.38-.02-.98-4.29V162.08c1.13-.75.96-2.18.96-3.35l2.88-.72v-9.35h4.8s0-4.8,0-4.8h4.32s.48-9.59.48-9.59h4.8s0-4.8,0-4.8h4.8s0-4.8,0-4.8h4.8s0-4.8,0-4.8l4.83-.21.45-4.59,9.12-.48.06-4.01.72-.72,13.62-.06.06-4.01,1.13-.79h70.58s1.18-1.44,1.18-1.44h376.8ZM269.12,414.42h9.6v-4.8s5.28,0,5.28,0v-4.8s8.88,0,8.88,0c1.4-.65.38-4.46.72-4.8l5.07-.45.21-4.35h9.12v-4.8s9.6-.47,9.6-.47v-4.8s5.28,0,5.28,0v-4.32s9.12-.48,9.12-.48c.34-.34-.68-4.15.72-4.8h8.88l.45-4.59,4.83-.21v-4.8s9.12,0,9.12,0l.45-4.59,4.83-.21v-4.8s9.6,0,9.6,0v-4.8h9.6v-4.8s4.8,0,4.8,0v-4.8s9.6,0,9.6,0v-4.8s9.6-.47,9.6-.47v-4.32s4.83-.21,4.83-.21l.45-4.59,9.12-.48v-4.32s-4.32,0-4.32,0v-4.8s-4.8,0-4.8,0v-4.8s-9.6-.47-9.6-.47v-4.32s-4.83-.21-4.83-.21l-.45-4.59-9.6-.48v-4.32s-9.12-.48-9.12-.48l-.45-4.59-4.83-.21v-4.8s-9.6,0-9.6,0v-4.8h-9.6v-4.8s-4.8,0-4.8,0v-4.8s-9.6-.47-9.6-.47v-4.32s-5.28,0-5.28,0v-4.8s-8.88,0-8.88,0c-1.4-.65-.38-4.46-.72-4.8h-4.8s0-4.79,0-4.79h-9.6v-4.8s-9.6-.47-9.6-.47v-4.32s-4.83-.21-4.83-.21l-.45-4.59-9.12-.48v-4.32s-4.83-.21-4.83-.21l-.45-4.59-9.6-.48v-4.32s-4.32,0-4.32,0l-.5,6.46v179.94s.5,6.46.5,6.46h4.32s0-4.8,0-4.8Z"/>
  <path class="cls-1" d="M9.44,477.74l.98,4.29,2.38.02c.43.4.29,10.21.47,11.76.1.89.34,2.25,1.29,2.55l3.31.53.21,4.83h4.32s.48,9.11.48,9.11h4.8s0,5.28,0,5.28h4.8s0,4.8,0,4.8h4.8s.45,4.59.45,4.59l4.83.21c.1.67-.25,1.8.08,2.33.13.22,4.35,2.29,4.6,2.36,1.39.35,3.18-.19,4.15.08.51.14.09,1.28,1.08,1.88,2.26,1.38,12.29,2.8,15.27,2.97l503.54-.03c26.16-2.11,48.62-20.64,55.21-46.05l1.68-9.6v56.13H9.44v-58.05Z"/>
  <path class="cls-1" d="M139.04,103.55l-1.18,1.44h-70.58s-1.13.79-1.13.79l-.06,4.01-13.62.06-.72.72-.06,4.01-9.12.48-.45,4.59-4.83.21v4.8s-4.8,0-4.8,0v4.8s-4.8,0-4.8,0v4.8s-4.8,0-4.8,0l-.48,9.6h-4.32s0,4.8,0,4.8h-4.8s0,9.35,0,9.35l-2.88.72c0,1.18.17,2.61-.96,3.35v-58.53h129.6Z"/>
  <path class="cls-1" d="M515.84,103.55h112.32v55.65c-.71-2.44-.67-5.13-1.18-7.69s-1.51-4.92-2.12-7.37l-2.46-.28c.35-3.33-.38-10.19-4.8-9.6l-.21-4.35-4.59-.45v-4.8s-4.8,0-4.8,0v-4.8s-9.6-.48-9.6-.48l-.45-4.59-4.83-.21v-4.32s-9.6-.48-9.6-.48l-.06-3.77c-.18-.3-5.09-.97-5.94-1.02-19.61-1.3-41.02,1.53-60.5,0-1.47-.12-1.24.24-1.18-1.44Z"/>
</svg>