<?xml version="1.0" encoding="UTF-8"?>
<svg id="Layer_3" data-name="Layer 3" xmlns="http://www.w3.org/2000/svg" viewBox="0 0 718.72 677.71">
  <defs>
    <style>
      .cls-1 {
        fill: #fff;
      }

      .cls-2 {
        fill: #f7f6f5;
      }
    </style>
  </defs>
  <path class="cls-1" d="M313.98,619.86v-225.12h-82.8l-.24-83.52h83.04v-106.08c1.23-.54,7.68,1.12,7.68-.24v-22.32h7.2l.48-14.88h7.2v-7.68c1.69-.19,6.52.61,7.45-.95l.71-13.93,14.4-.48v-7.2l15.36-.48v-7.2h14.88v-6.96l1.2-.72c6.6-.65,14.75.85,21.15.04.92-.12.46-.92,1.38-1.04,1.07-.14,6.28.27,6.51.04v-6.24s53.28,0,53.28,0v7.2h37.2l.72.72v74.64l-68.16.48v7.2h-7.68v7.68h-7.68v7.2h-6.96l-.72.72v7.44h-7.2v75.84h7.2v7.2h83.52l-.48,45.6h-6.72l-.48,37.44-75.84.48v7.2h-7.2v217.92h-98.4Z"/>
  <polygon class="cls-1" points="72.06 553.62 78.78 553.62 79.26 568.98 86.46 568.98 86.94 583.86 94.14 583.86 94.14 591.54 101.82 591.54 101.82 598.5 102.54 599.22 109.5 599.22 109.5 606.42 117.18 606.42 117.18 613.62 139.74 614.1 139.74 619.86 72.06 619.86 72.06 553.62"/>
  <polygon class="cls-1" points="132.06 30.9 130.9 31.4 124.38 31.38 124.38 38.58 109.5 39.06 109.5 46.26 101.82 46.26 101.82 53.94 94.14 53.94 94.14 61.62 86.94 61.62 86.46 76.5 79.26 76.5 78.78 91.86 72.06 91.86 72.06 30.9 132.06 30.9"/>
  <polygon class="cls-1" points="609.18 30.9 661.02 30.9 661.02 69.3 654.78 69.3 654.3 61.62 647.1 61.62 647.1 53.94 639.42 53.94 639.42 46.26 631.74 46.26 631.74 39.3 631.02 38.58 624.06 38.58 624.06 31.38 609.18 30.9"/>
  <g>
    <path class="cls-2" d="M609.18,30.9l14.88.48v7.2h6.96l.72.72v6.96h7.68v7.68h7.68v7.68h7.2l.48,7.68h6.24s0,506.88,0,506.88h-6.24v6.96l-.72.72h-6.96v7.68h-7.68v7.68h-7.68v7.2h-7.68v7.2l-22.08.96-.48,5.28h-189.12v-217.92h7.2v-7.2l75.84-.48.48-37.44h6.72l.48-45.6h-83.52v-7.2h-7.2v-75.84h7.2v-7.44l.72-.72h6.96v-7.2h7.68v-7.68h7.68v-7.2l68.16-.48v-74.64l-.72-.72h-37.2v-7.2h-53.28v6.24c-.23.23-5.44-.18-6.51-.04-.92.12-.46.92-1.38,1.04-6.4.81-14.55-.68-21.15-.04l-1.2.72v6.96h-14.88v7.2l-15.36.48v7.2l-14.4.48-.71,13.93c-.93,1.57-5.76.77-7.45.95v7.68h-7.2l-.48,14.88h-7.2v22.32c0,1.36-6.45-.3-7.68.24v106.08h-83.04l.24,83.52h82.8v225.12h-174.24v-5.76s-22.56-.48-22.56-.48v-7.2h-7.68v-7.2h-6.96l-.72-.72v-6.96h-7.68v-7.68h-7.2l-.48-14.88h-7.2l-.48-15.36h-6.72s0-461.76,0-461.76h6.72s.48-15.36.48-15.36h7.2l.48-14.88h7.2v-7.68h7.68v-7.68h7.68v-7.2l14.88-.48v-7.2l6.52.02,1.16-.5h477.12Z"/>
    <polygon class="cls-1" points="661.02 576.18 661.02 619.86 601.5 619.86 601.98 614.58 624.06 613.62 624.06 606.42 631.74 606.42 631.74 599.22 639.42 599.22 639.42 591.54 647.1 591.54 647.1 583.86 654.06 583.86 654.78 583.14 654.78 576.18 661.02 576.18"/>
  </g>
</svg>