<?xml version="1.0" encoding="UTF-8"?>
<svg id="Layer_2" data-name="Layer 2" xmlns="http://www.w3.org/2000/svg" viewBox="0 0 618.72 589.92">
  <defs>
    <style>
      .cls-1 {
        fill: #f7f6f5;
      }
    </style>
  </defs>
  <path class="cls-1" d="M59.76,127.2c1.48-2.76.83-6.33,1.86-9.32l2.45-.28v-10.8l.79-.64,3.04-.08v-7.68h3.84s.21-3.87.21-3.87c.56-.81,2.66-.36,3.63-.45v-7.2h3.84s0-3.84,0-3.84h3.84s.21-3.87.21-3.87c.57-.81,2.66-.35,3.63-.45.1-.97-.36-3.07.45-3.63l3.39-.21c.1-.97-.36-3.07.45-3.63l3.39-.21c.1-.97-.36-3.07.45-3.63l3.39-.21.21-3.39c.56-.81,2.67-.35,3.63-.45.1-.97-.37-3.07.45-3.63l3.87-.21v-3.36s7.2-.48,7.2-.48c.1-.97-.37-3.07.45-3.63l4.83-.21v-3.36s6.72-.48,6.72-.48v-3.36s8.64-.48,8.64-.48v-3.36s14.39-.48,14.39-.48c.09-1.32-.47-2.93.72-3.84h18.95v-3.36s5.02-.5,5.02-.5l318.84.02v3.84s23.03.48,23.03.48v3.36s11.51.48,11.51.48v3.36s7.43,0,7.43,0c1.18.91.63,2.53.72,3.84l7.68.48v3.36s3.87.21,3.87.21c.81.57.35,2.66.45,3.63l7.2.48v3.36s3.87.21,3.87.21c.81.57.35,2.66.45,3.63l7.2.48v3.84s3.84,0,3.84,0v3.84s3.84,0,3.84,0v3.84s3.84,0,3.84,0v3.84s3.84,0,3.84,0l.48,7.21c.97.09,3.07-.37,3.63.45l.21,3.87h3.36s.48,7.2.48,7.2c.97.09,3.07-.37,3.63.45l.21,3.87h3.36s.48,7.68.48,7.68h3.36s.48,11.52.48,11.52l2.09.06.72.72.53,9.57.5,1.16v359.52l-1.11,8.73c-6.5,44.56-43.6,81.89-88.43,87.69-3.48.45-7.35.17-10.74,1.02H160.52l-14.41-1.66c-6.68-1.54-13.41-3.07-19.78-5.65-4.67-1.89-9.08-2.79-8.03-9.01h-7.68v-3.84s-3.84,0-3.84,0v-3.84s-3.87-.21-3.87-.21l-.45-3.63-3.63-.45-.21-3.39-3.63-.45-.21-3.39-7.2-.47-.48-7.21-3.63-.45-.21-3.87h-3.84s0-3.84,0-3.84h-3.36s-.47-7.68-.47-7.68h-3.84s0-3.84,0-3.84c-5.25.93-3.62-4.21-3.84-7.68l-2.36-.05c-.11-1.75-1.22-3.34-1.44-5.03s.35-4.88,0-6.15c-.16-.57-1.45-.04-1.87-1.09-1.5-3.72-.7-9.44-2.48-13.12V127.2ZM434.47,110.4h-208.23v3.36s-19.19.48-19.19.48v3.36s-7.68.48-7.68.48v3.36s-7.68.48-7.68.48v3.36s-7.68.48-7.68.48v3.36s-3.87.21-3.87.21l-.45,3.63-7.2.48v3.84s-3.84,0-3.84,0l-.21,3.39-3.63.45-.21,3.39-3.63.45-.45,3.63-3.39.21-.45,3.63-3.39.21-.48,7.21-3.63.45-.21,3.87h-3.36s0,3.84,0,3.84h-3.84s-.47,11.52-.47,11.52c-1.32.09-2.93-.47-3.84.72v6.96h-3.36s-.47,12-.47,12h-3.36s-.5,5.02-.5,5.02v217l.5,5.02h3.36s.47,12,.47,12h3.36s.47,7.68.47,7.68h3.36s0,7.68,0,7.68h3.84s.48,7.68.48,7.68h3.36s0,3.84,0,3.84h3.84s.48,7.68.48,7.68h3.84s0,3.84,0,3.84l3.39.21.45,3.63,3.63.45.21,3.39h3.84s0,3.84,0,3.84h3.84s0,3.84,0,3.84l7.68.48v3.36s3.39.21,3.39.21l.45,3.63h6.96c1.18.91.63,2.53.72,3.84l11.04.47.46,3.14,7.7.7v3.36s19.19.48,19.19.48v3.36s200.55,0,200.55,0v-3.36s19.19-.48,19.19-.48v-3.36s11.51-.48,11.51-.48v-3.36s7.68-.48,7.68-.48l.45-3.63,3.87-.21v-3.36s7.68-.48,7.68-.48v-3.36s7.68-.48,7.68-.48v-3.84s3.84,0,3.84,0v-3.84s3.84,0,3.84,0v-3.84s3.84,0,3.84,0v-3.84s3.84,0,3.84,0v-3.84s3.84,0,3.84,0l.21-7.21,3.63-.47v-3.84s3.84,0,3.84,0l.47-7.21h3.36s0-4.32,0-4.32h3.84s.47-11.52.47-11.52h3.36s.47-12,.47-12h3.36s0-227.52,0-227.52h-3.36s-.47-11.52-.47-11.52h-3.36s-.47-11.52-.47-11.52h-3.84s0-7.68,0-7.68h-3.84s0-3.84,0-3.84c-1.32-.09-2.93.47-3.84-.72v-6.96h-3.84s0-3.84,0-3.84l-3.39-.21-.45-3.63h-3.84s0-3.84,0-3.84h-3.84s0-3.84,0-3.84l-3.63-.45-.21-3.39h-3.84s0-3.84,0-3.84l-3.87-.21-.45-3.63-6.92-.42-.28-3.42-7.68-.48v-3.36s-7.68-.48-7.68-.48v-3.36s-8.16-.48-8.16-.48v-3.36s-19.19-.48-19.19-.48v-3.36Z"/>
  <g>
    <path class="cls-1" d="M430.64,144.96v3.36s12,.48,12,.48v3.36s11.51.48,11.51.48v3.36s7.68.48,7.68.48v3.84s3.84,0,3.84,0v3.36s3.39.21,3.39.21l.45,3.63,3.87.21.45,3.63,3.63.44-.06,3.4,3.63.47.45,3.63,3.39.21.48,7.68h3.36s.21,3.87.21,3.87l3.63.45.47,11.04h3.36s0,223.68,0,223.68h-3.36s-.48,8.16-.48,8.16h-3.36s-.48,7.68-.48,7.68l-3.63.45-.21,3.87h-3.36s-.47,7.2-.47,7.2h-3.84s0,3.84,0,3.84l-3.63.45-.21,3.39h-3.84s0,3.84,0,3.84l-7.68.48v3.84s-3.84,0-3.84,0v3.36s-11.51.48-11.51.48c-.09,1.32.47,2.93-.72,3.84h-10.8v3.36s-5.97.5-5.97.5h-197.24s-5.5-.5-5.5-.5v-3.36s-10.79,0-10.79,0c-1.18-.91-.63-2.53-.72-3.84l-7.71-.21-.45-3.63h-7.2v-3.84s-3.87-.21-3.87-.21l-.45-3.63-7.2-.48-.21-3.39-3.63-.45-.45-3.63-3.39-.21-.48-7.21-3.63-.45-.21-3.87h-3.36s-.47-7.68-.47-7.68h-3.36s-.47-11.52-.47-11.52h-3.36s-.47-5.04-.47-5.04v-211.44s3.84,0,3.84,0l.47-14.89h3.36s0-4.32,0-4.32h3.84s0-7.68,0-7.68h3.84s0-3.84,0-3.84h3.84s.21-3.87.21-3.87l3.63-.45.45-3.63,3.39-.21v-3.36s3.87-.21,3.87-.21l.45-3.63h3.84s0-3.84,0-3.84h6.96c1.18-.91.63-2.53.72-3.84l11.52-.48v-3.36s15.35-.48,15.35-.48v-3.36s196.71,0,196.71,0ZM445.99,180h-11.51l-.45,3.15-6.78.42-.45,3.63h-3.84s0,3.84,0,3.84h-3.36s-.21,3.87-.21,3.87l-3.63.45v15.36h3.36s.47,7.2.47,7.2l3.39.21.45,3.63,3.63.45.21,3.39h23.03s0-3.36,0-3.36l7.2-.48.48-7.2,3.37-.8v-22.24s-3.38,0-3.38,0l-.21-3.87-3.63-.45c-.09-1.32.47-2.93-.72-3.84h-7.44v-3.36ZM226.73,291.84v41.76h3.36s.47,12,.47,12h3.36s.47,11.04.47,11.04h3.36s.48,8.16.48,8.16h3.36s0,3.84,0,3.84h3.84s.48,7.68.48,7.68l3.39.21.45,3.63,3.63.45.21,3.39,3.63.45.21,3.39h3.36s0,3.84,0,3.84l3.87.21.45,3.63h3.84s0,3.84,0,3.84l7.68.48v3.36s3.84,0,3.84,0v3.84s7.67,0,7.67,0v3.84s15.36.48,15.36.48v3.36s23.03.48,23.03.48v3.36s7.67,0,7.67,0v-3.36s23.51-.48,23.51-.48v-3.36s14.87-.48,14.87-.48c.09-1.32-.47-2.93.72-3.84h6.96l.45-3.63,3.87-.21v-3.36s7.68-.48,7.68-.48v-3.84s3.84,0,3.84,0l.21-3.39,3.63-.45v-3.36s3.63-.45,3.63-.45l.21-3.39h3.84s0-4.32,0-4.32h3.84s0-3.84,0-3.84h3.84s0-3.84,0-3.84h3.84s0-7.68,0-7.68h3.84v-7.68h3.84v-7.44c0-.13.49-1.12.81-1.22l3.03.02.48-14.4h3.36s0-42.72,0-42.72h-3.36s-.47-11.52-.47-11.52h-3.36s-.47-11.52-.47-11.52h-3.84s0-7.68,0-7.68h-3.84s-.03-6.21-.03-6.21c-3.52-.12-4.28-2.01-3.81-5.31h-3.84s0-3.84,0-3.84h-3.84s0-3.84,0-3.84h-3.84s0-3.84,0-3.84h-3.84s0-3.84,0-3.84h-3.84s0-3.84,0-3.84l-7.68-.48v-3.36s-3.84,0-3.84,0v-3.84s-7.68-.48-7.68-.48v-3.36s-7.68-.48-7.68-.48v-3.36s-15.35-.48-15.35-.48v-3.36s-46.54,0-46.54,0v3.36s-15.35.48-15.35.48v3.36s-7.68.48-7.68.48v3.36s-7.68.48-7.68.48v3.84s-3.84,0-3.84,0c.2,4.85-.05,3.17-2.64,3.36-1.63.12-3.27.83-5.04.48v3.84s-3.84,0-3.84,0v3.84s-3.84,0-3.84,0v3.84s-3.84,0-3.84,0v3.84s-3.84,0-3.84,0v3.84s-3.84,0-3.84,0l-.48,7.68h-3.36s-.48,7.68-.48,7.68h-3.36s-.47,7.2-.47,7.2h-3.36s-.48,8.16-.48,8.16h-3.36s-.47,12-.47,12h-3.36Z"/>
    <path class="cls-1" d="M399.93,330.24h-3.36s-.47,11.52-.47,11.52h-3.36s-.48,7.68-.48,7.68l-3.34.02-.51,4.29h-3.36s-.48,7.21-.48,7.21h-3.84s0,3.84,0,3.84h-3.84s0,3.84,0,3.84l-7.68.48-.45,3.63-3.39.21v3.36s-8.16.48-8.16.48v3.36s-11.51.48-11.51.48v3.36c-10.27.29-20.42.29-30.71,0v-3.36s-11.51-.48-11.51-.48v-3.36s-7.68-.48-7.68-.48v-3.36s-3.87-.21-3.87-.21l-.45-3.63-7.2-.48v-3.84s-3.84,0-3.84,0v-3.84s-3.84,0-3.84,0l-.55-4.74-3.29-.06-.48-6.73h-3.36s-.48-7.68-.48-7.68h-3.36s-.47-11.52-.47-11.52h-3.36s-.48-30-.48-30l.79-1.13,3.06-.06.06-10.74.72-.72,3.06-.06.47-11.05h3.36s0-4.32,0-4.32h3.84s0-3.84,0-3.84h3.84s.21-3.87.21-3.87l3.63-.45.44-3.64,3.41.07.46-3.64h3.84s0-3.84,0-3.84l7.68-.48v-3.36s7.68-.48,7.68-.48v-3.36s46.06,0,46.06,0v3.36s8.16.48,8.16.48v3.36s7.68.48,7.68.48v3.84s3.84,0,3.84,0v3.36s3.39.21,3.39.21l.45,3.63,3.39.21.9,3.9,3.39.21v3.84s3.84,0,3.84,0v3.84s3.84,0,3.84,0v7.68h3.84s.47,15.36.47,15.36h3.36s0,31.2,0,31.2Z"/>
  </g>
</svg>