<?xml version="1.0" encoding="UTF-8"?>
<svg id="Layer_1" data-name="Layer 1" xmlns="http://www.w3.org/2000/svg" viewBox="0 0 771.95 744.87">
  <defs>
    <style>
      .cls-1 {
        fill: #f7f6f5;
      }

      .cls-2 {
        fill: #fff;
      }
    </style>
  </defs>
  <path class="cls-1" d="M639.18,108.08l9.48,1.84c19.93,5.5,34.8,22.86,37.5,43.31.93,144.6.12,289.31.41,433.96-1.13,25.64-21.57,47.15-47.2,49.29H184.14c-21.07-2.12-38.95-17.27-44.66-37.56l-1.84-9.48V155.45c.3-4.06,2.5-13.73,4.51-17.18.25-.42.89-.13,1.02-.26.17-.17-.04-1.25.13-1.8.61-1.94,2.68-2.42,2.51-4.46l1.94-.32v-2.44h2.09l.15-2.12,2.29-.32c-.1-1.9-.25-2.6,1.22-3.85,9.43-7.98,18.3-13.63,31.52-14.61h454.19-.03ZM201.71,205.6v17.76h2.09l.35,9.06h1.74l.35,4.53h2.09v4.18l2.29.32.15,4.21h2.09v2.44h2.44v2.09h2.09v2.44h2.44v2.09l4.18.35.32,1.94,2.12.15v2.09h4.53v2.09l6.62.35v2.09h29.26v-2.09l4.53-.35v-2.09h4.53v-2.09l4.19-.15.32-2.29h2.09v-2.09l2.29-.32.15-2.12h2.09v-2.09h2.44l-.2-2.1,2.29-.33v-2.09h2.09l.35-4.53h2.09v-4.53h2.09l.35-6.62h2.09l-.35-26.82-1.94-.32-.15-4.56h-2.09l-.04-3.96c-.28-.81-1.36-.54-2.05-.57l-.35-4.18h-2.09v-2.44h-2.09l-.35-4.18h-2.09v-2.44h-4.18l-.15-2.1-2.29-.32v-2.09h-2.44v-2.09l-4.53-.35v-2.09h-4.53v-2.09l-11.15-.35v-1.74c-4.4-.49-8.84-.49-13.24,0v1.74l-9.06.35v2.09l-6.62.35-.32,1.94-2.12.15v2.09h-4.53v2.09l-2.28.32-.15,2.12h-2.09v2.09h-2.09l-.15,2.1-2.29.32v2.09h-2.09l-.35,4.53h-2.09v2.44h-2.09l-.35,6.62h-1.74l-.35,6.97h-2.09,0ZM486.97,299.65h-6.44l-.52,2.09-6.62.35v2.09l-3.96.04c-.81.28-.54,1.36-.57,2.05l-4.18.35v2.09h-4.53l-.15,2.12-2.29.32v2.09h-2.44v2.09l-4.18.35v2.09h-2.09v2.09h-2.44v2.44h-2.09v2.09h-2.44v2.44h-2.09v2.09h-2.09l-.35,4.53h-2.09v2.09l-2.29.32-.15,2.12h-2.09v-33.26c-.57-.78-1.6-.49-2.44-.52v-2.09h-78.37v2.09l-2.12.15-.35,1.04v269.62l.35,1.04,2.12.15v2.09h82.9l.35-4.53h1.74v-35.88h-1.74v-103.1h1.74l.35-25.08h2.09l.35-8.71h2.09v-4.88h2.09v-4.18h2.09l.35-4.53h2.09v-2.44h2.44v-2.09h2.09v-2.09l4.18-.35v-2.09h2.79v-2.09l4.18-.35v-2.09h9.06v-2.09h29.26v2.09h6.62v2.09l2.29.32.15,2.12h4.18l.15,2.1,2.29.32v2.09h2.09l.35,4.53h2.09v2.44h2.09l.15,4.19,1.93.33.35,8.71h2.09l.35,9.06h1.74l.33,163.85,2.1.2v2.09h81.15v-2.09h2.09v-181.99c0-.12-.33-.58-.36-1.03-.09-1.2.09-2.47.01-3.67h-1.74l-.35-15.67h-2.09l-.35-9.06h-1.74l-.35-8.71h-2.09v-6.62l-2.29-.32-.15-4.56h-2.09v-4.53h-2.09l-.35-4.18-1.94-.32-.15-2.12h-2.09v-4.53h-2.44v-2.09h-2.09v-2.44h-2.09l-.32-2.28-2.12-.15v-2.09h-2.09l-.32-2.29-2.12-.15v-2.09h-2.09v-2.09h-2.44v-2.09l-4.18-.35v-2.09h-4.53v-2.09l-2.45-.15-.33-1.93-6.27-.35v-2.09h-6.44l-.52-2.09-8.71-.35v-2.09l-13.58-.35v-1.74c-10.54-.3-21.16-.64-31.7,0v1.74l-11.15.35v2.09h.01ZM291.57,302.08h-80.81v2.09h-2.44v271.5l2.09.52v2.09h83.24l.36-3.99v-268.92l-.35-1.04-2.12-.15v-2.09h.01Z"/>
  <path class="cls-2" d="M639.18,108.08h47.72v528.73H137.62v-47.37l1.84,9.48c5.72,20.27,23.58,35.44,44.66,37.54h455.25c25.63-2.1,46.06-23.61,47.2-49.27-.29-144.65.52-289.35-.41-433.96-2.7-20.45-17.56-37.81-37.5-43.31l-9.48-1.84h0Z"/>
  <path class="cls-2" d="M184.99,108.08c-13.22,1-22.09,6.63-31.52,14.61-1.47,1.25-1.34,1.94-1.22,3.85l-2.29.32-.15,2.12h-2.09v2.44l-1.94.32c.17,2.03-1.9,2.51-2.51,4.46-.17.55.04,1.63-.13,1.8-.13.13-.75-.17-1.02.26-2.02,3.47-4.21,13.12-4.51,17.18v-47.37h47.38Z"/>
</svg>