<?xml version="1.0" encoding="UTF-8"?>
<svg id="Layer_1" data-name="Layer 1" xmlns="http://www.w3.org/2000/svg" viewBox="0 0 612 792">
  <defs>
    <style>
      .cls-1 {
        fill: #fff;
        stroke: #231f20;
        stroke-miterlimit: 10;
        stroke-width: .15px;
      }

      .cls-2 {
        fill: #231f20;
      }
    </style>
  </defs>
  <g id="Layer_2" data-name="Layer 2">
    <path class="cls-1" d="M95.09,100.68l443.93-.4c29.3,5.45,51.28,27.68,54.57,57.67v432.65c-2.25,31.29-26.8,55.92-57.78,59.34H102.77c-30.69-2.21-55.57-25.76-59.4-56.09l.08-439.08c3.71-27.18,24.98-48.68,51.64-54.1ZM476.35,277.52c-46.04-1.49-85.45-39.41-89.81-85.07l-2.14-2.74h-50.45l-2.44,2.44v265.04c0,2.19-4.75,13.76-6.22,16.55-16.06,30.68-60.12,39.55-87.33,18.37-45.5-35.42-15.35-107.64,41.46-100.77v-56.91c-82.17-2.72-141.75,76.27-111.46,154.44,32.62,84.18,148.37,96.29,198.38,21.02,7.34-11.05,18.86-36.52,18.86-49.44v-161.79c22.06,28.74,54.44,44.67,91.14,42.28v-63.41Z"/>
    <path class="cls-2" d="M476.35,277.52c-46.04-1.49-85.45-39.41-89.81-85.07l-2.14-2.74h-50.45l-2.44,2.44v265.04c0,2.19-4.75,13.76-6.22,16.55-16.06,30.68-60.12,39.55-87.33,18.37-45.5-35.42-15.35-107.64,41.46-100.77v-56.91c-82.17-2.72-141.75,76.27-111.46,154.44,32.62,84.18,148.37,96.29,198.38,21.02,7.34-11.05,18.86-36.52,18.86-49.44v-161.79c22.06,28.74,54.44,44.67,91.14,42.28v-63.41Z"/>
  </g>
</svg>
