<?xml version="1.0" encoding="UTF-8"?>
<svg id="Layer_5" data-name="Layer 5" xmlns="http://www.w3.org/2000/svg" viewBox="0 0 618.72 589.92">
  <defs>
    <style>
      .cls-1 {
        fill: #f7f6f5;
      }
    </style>
  </defs>
  <path class="cls-1" d="M573.36,52.32v522.96H50.16V52.32h523.2ZM177.84,233.2v8.64h4.32s.21,4.35.21,4.35l4.11.45v4.32s4.32,0,4.32,0l.48,8.64,4.35.21.45,4.59h4.32s0,4.8,0,4.8h3.84s.48,8.16.48,8.16l4.59.45.21,4.35h4.32s0,4.8,0,4.8h4.32s0,8.63,0,8.63l4.35.21.45,4.11,3.87.21.45,4.59h4.32s0,4.32,0,4.32l3.54.06.72.72.54,7.85,4.11.45.21,4.35h4.32s0,4.8,0,4.8h4.32s0,8.63,0,8.63h-4.32s0,4.8,0,4.8h-4.32s0,4.32,0,4.32h-4.32s-.48,8.64-.48,8.64h-4.32s-.45,4.59-.45,4.59l-4.35.21v4.32s-4.32,0-4.32,0v4.8s-4.32,0-4.32,0v4.32s-4.32,0-4.32,0l-.45,4.59-3.87.21-.45,4.11-4.35.21-.48,8.64-3.87.21-.45,4.11-4.11.45-.21,4.35h-4.32s0,4.32,0,4.32h-4.32s-.45,4.59-.45,4.59l-4.35.21v4.32s-4.32,0-4.32,0l-.48,8.64-3.87.21-.45,4.11-4.11.45-.21,4.35h-4.32s-.21,4.35-.21,4.35l-4.11.45v4.32s-4.32,0-4.32,0v4.32s-4.8,0-4.8,0v4.8s-4.32,0-4.32,0l-.48,8.64h-4.32s0,4.32,0,4.32h-4.32s-.21,4.35-.21,4.35l-4.11.45v4.32s-4.8,0-4.8,0v4.8s-4.32,0-4.32,0v4.32s-4.32,0-4.32,0v4.32s-4.32,0-4.32,0l-.21,4.35-4.11.45-.48,8.64h-4.32s0,4.32,0,4.32l-4.59.45-.21,4.35h-4.32s0,4.32,0,4.32h-4.32s0,4.8,0,4.8l66.72-.48.21-4.35,4.11-.45v-4.32s4.32,0,4.32,0l.45-4.11,4.35-.21v-8.64l4.59-.45.21-4.35h4.32s0-4.32,0-4.32h4.32s0-4.8,0-4.8h4.32s0-4.32,0-4.32h4.32s.45-4.59.45-4.59l4.35-.21.48-8.16,4.11-.45.21-4.35h4.32s0-4.32,0-4.32h4.32s0-4.8,0-4.8h4.32s0-4.32,0-4.32h4.32s.45-4.59.45-4.59l4.35-.21.48-7.68,3.77-.06.55-5.21h4.32s0-4.8,0-4.8h4.32s0-4.32,0-4.32h4.32s0-4.32,0-4.32h4.32s.21-4.35.21-4.35l4.59-.45v-4.32s4.32,0,4.32,0l.21-4.35,4.11-.45.48-8.64h4.32s0-4.32,0-4.32h4.32s.21-4.35.21-4.35l4.59-.45v-4.32s9.12,0,9.12,0v4.32s4.32,0,4.32,0v4.8s4.32,0,4.32,0l.48,8.64h4.32s0,4.8,0,4.8h4.32s0,4.32,0,4.32h4.32s.48,8.64.48,8.64l4.11.45.21,4.35h4.32s0,4.32,0,4.32h4.32s.48,9.12.48,9.12h4.32s0,4.32,0,4.32h4.32s0,4.8,0,4.8h4.32s0,4.32,0,4.32h4.32s.48,8.64.48,8.64h4.32s0,4.8,0,4.8h4.32s.21,4.35.21,4.35l4.11.45.48,8.16,3.87.21.45,4.59h4.32s.21,4.35.21,4.35l4.11.45.48,8.64h4.32s0,4.32,0,4.32h4.32s0,4.8,0,4.8h4.32s.48,8.64.48,8.64h4.32s0,4.8,0,4.8h4.32s0,4.32,0,4.32l134.4.47v3.84s3.84,0,3.84,0v-8.16l-4.11-.45-.21-4.35h-4.32s0-4.8,0-4.8h-4.32s0-4.32,0-4.32h-4.32s-.48-8.64-.48-8.64l-3.87-.21-.45-4.59h-4.32s0-4.32,0-4.32l-4.11-.45-.69-8.67h-4.32s0-4.32,0-4.32h-4.32s0-4.8,0-4.8h-4.32s-.48-8.64-.48-8.64h-4.32s0-4.8,0-4.8h-4.32s0-4.32,0-4.32h-4.32s-.48-8.64-.48-8.64h-4.32s0-4.8,0-4.8h-4.32s0-4.32,0-4.32l-4.26-.54-.54-8.57h-4.32s0-4.32,0-4.32h-4.32s0-4.8,0-4.8h-4.32s-.48-8.64-.48-8.64h-4.32s0-4.32,0-4.32h-4.32s0-4.8,0-4.8h-4.32s-.21-4.35-.21-4.35l-4.11-.45-.48-8.64h-4.32s0-4.32,0-4.32h-4.32s-.21-4.35-.21-4.35l-4.11-.45-.48-8.64h-4.32s0-4.32,0-4.32h-4.32s0-4.8,0-4.8h-4.32s-.48-8.64-.48-8.64h-4.32s0-4.8,0-4.8h-4.32s-.55-5.21-.55-5.21l-3.77-.06-.48-8.16h-4.32s0-4.32,0-4.32h-4.32s-.21-4.35-.21-4.35l-4.11-.45-.48-8.64h-4.32s0-4.32,0-4.32h-4.32s0-4.8,0-4.8h-4.32s-.48-8.64-.48-8.64h-4.32s0-9.11,0-9.11h4.32s.45-4.59.45-4.59l4.35-.21v-4.32s4.32,0,4.32,0l.48-8.64,4.11-.45.21-4.35h4.32s0-4.32,0-4.32h4.32s.21-4.35.21-4.35l4.11-.45.45-4.11,4.35-.21v-4.32s4.32,0,4.32,0v-4.8s4.32,0,4.32,0l.48-8.64h4.32s0-4.32,0-4.32h4.32s.21-4.35.21-4.35l4.11-.45v-4.32s4.8,0,4.8,0v-4.8s4.32,0,4.32,0v-4.32s4.32,0,4.32,0v-4.32s4.32,0,4.32,0l.48-8.64h4.32s0-4.8,0-4.8h4.8s0-4.32,0-4.32l4.11-.45.21-4.35h4.32s0-4.32,0-4.32h4.32s.45-4.59.45-4.59l3.87-.21.45-4.11,4.35-.21v-8.64h4.32s0-4.32,0-4.32l4.59-.45.21-4.35h4.32s0-4.32,0-4.32h4.32s.21-4.35.21-4.35l4.11-.45v-4.32s4.8,0,4.8,0v-4.8s4.32,0,4.32,0l.48-8.16,4.11-.45.16-4.3-62.83-.05v4.32s-4.11.45-4.11.45l-.21,4.35h-4.32s0,4.32,0,4.32h-4.8s0,4.32,0,4.32l-4.11.45-.21,4.35h-4.32s0,4.32,0,4.32h-4.32s-.21,4.35-.21,4.35l-4.11.45-.48,8.64h-4.32s0,4.32,0,4.32h-4.32s-.21,4.35-.21,4.35l-4.59.45v4.32s-4.32,0-4.32,0l-.21,4.35-4.11.45v4.32s-4.32,0-4.32,0l-.48,8.64h-4.32s0,4.32,0,4.32l-4.59.45-.21,4.35h-4.32s0,4.32,0,4.32h-4.32s0,4.8,0,4.8h-4.32s0,4.32,0,4.32h-4.32s0,4.32,0,4.32h-4.8s-.48,8.64-.48,8.64l-4.11.45-.21,4.35h-4.32s0,4.32,0,4.32h-4.32s0,4.8,0,4.8h-4.32s0,4.32,0,4.32h-9.6v-4.32s-4.32,0-4.32,0v-4.32s-4.32,0-4.32,0v-4.8s-4.32,0-4.32,0l-.48-8.64h-4.32s0-4.8,0-4.8h-4.32s0-4.32,0-4.32h-4.32s-.21-4.35-.21-4.35l-4.11-.45-.48-8.64h-4.32s0-4.8,0-4.8h-4.32s-.48-8.64-.48-8.64h-4.32s0-4.32,0-4.32h-4.32s0-4.8,0-4.8h-4.32s-.48-8.64-.48-8.64h-4.32s0-4.8,0-4.8h-4.32s0-4.32,0-4.32h-4.32s-.21-4.35-.21-4.35l-4.11-.45-.48-8.64h-4.32s0-4.32,0-4.32h-4.32s0-4.8,0-4.8h-4.32s-.48-8.64-.48-8.64h-4.32s0-4.8,0-4.8h-4.32s0-4.32,0-4.32h-4.8s0-4.32,0-4.32h-3.36c-.21.22.47,3.94-1.18,3.87l-129.38.45v4.32s4.32,0,4.32,0l.48,8.64,4.11.45.21,4.35h4.32s.21,4.35.21,4.35l4.11.45v4.32s4.32,0,4.32,0l.48,8.64h4.32s0,4.8,0,4.8h4.32s.21,4.35.21,4.35l4.11.45.48,8.16h4.32s0,4.8,0,4.8h4.32s.21,4.35.21,4.35l4.11.45.48,8.64h4.32s0,4.32,0,4.32h4.32s.21,4.35.21,4.35l4.11.45.48,8.64h4.32s0,4.32,0,4.32h4.32s0,4.8,0,4.8h4.32s.21,4.35.21,4.35l4.11.45.48,8.64h4.32s0,4.32,0,4.32l4.35.21.45,4.59h4.32Z"/>
  <path class="cls-1" d="M159.6,147.8l44.64.48.48,8.64,4.35.21.45,4.11,3.87.21.45,4.59h4.32s0,8.63,0,8.63h4.32s.21,4.35.21,4.35l4.11.45v4.32s4.8,0,4.8,0v4.8s3.36,0,3.36,0c.14,1.1-.23,2.48,0,3.51.09.39.87.13.99,1.02.1.8-.23,3.93-.04,4.11h4.32s0,4.32,0,4.32l4.35.21.45,4.59h3.84s.48,8.64.48,8.64h4.32s.21,4.35.21,4.35l4.59.45v8.64h4.32s0,4.32,0,4.32l4.35.21.45,4.59h4.32s0,8.63,0,8.63h4.32s0,4.8,0,4.8h4.8s0,4.32,0,4.32l4.11.45.21,4.35h4.32s0,8.63,0,8.63h4.32s.45,4.59.45,4.59l4.35.21v4.32s4.32,0,4.32,0l.48,8.64h3.84s.45,4.59.45,4.59l4.35.21v4.8s4.32,0,4.32,0l.48,8.16,3.87.21.45,4.59,4.11.45.21,4.35h4.32s0,8.63,0,8.63h4.8s0,4.32,0,4.32l4.11.45.21,4.35h4.32s0,8.63,0,8.63l4.59.45.21,4.35h4.32s0,4.32,0,4.32h4.32s0,8.63,0,8.63l4.59.45.21,4.35h4.32s0,4.8,0,4.8h4.32s0,8.63,0,8.63l4.35.21.45,4.11,3.87.21.45,4.59h4.32s0,8.63,0,8.63l4.35.21.45,4.11,3.87.21.45,4.59h4.32s0,8.63,0,8.63h4.32s0,4.8,0,4.8h4.8s0,4.32,0,4.32h4.32s0,4.8,0,4.8h4.32s.48,8.64.48,8.64l4.11.45.21,4.35h4.32s0,4.32,0,4.32h4.32s.48,8.64.48,8.64l4.11.45.21,4.35h4.32s0,4.8,0,4.8h3.84c-.58,3.05,1.53,5.1.96,8.16l4.11.45-.27,9.15h-35.28c-1.35-.6-.41-4.02-.72-4.32h-4.32s0-4.8,0-4.8h-4.32s0-4.32,0-4.32h-4.32s-.21-4.35-.21-4.35l-4.59-.45v-8.64h-4.32s-.21-4.35-.21-4.35l-4.11-.45v-4.32s-4.32,0-4.32,0l-.48-8.64h-4.32s-.21-4.35-.21-4.35l-4.11-.45v-4.32s-4.11-.45-4.11-.45l-.69-8.67h-4.32s0-4.32,0-4.32l-4.35-.21-.45-4.59h-4.32s0-8.63,0-8.63h-4.32s0-4.32,0-4.32l-4.35-.21-.45-4.59h-4.32s0-4.32,0-4.32l-4.11-.45-.42-8.22-4.59-.45v-4.32s-4.32,0-4.32,0v-4.32s-4.11-.45-4.11-.45l-.69-8.67-3.87-.21-.45-4.11-4.11-.45-.21-4.35h-4.32s-.48-8.64-.48-8.64l-4.11-.45-.21-4.35h-4.32s0-4.32,0-4.32h-4.32s-.48-8.64-.48-8.64l-4.11-.45-.21-4.35h-4.32s0-4.32,0-4.32h-4.32s0-9.11,0-9.11h-4.8s0-4.32,0-4.32h-4.32s0-4.32,0-4.32l-4.11-.45-.21-4.35h-4.32s-.48-8.64-.48-8.64l-4.11-.45-.21-4.35h-4.32s0-4.32,0-4.32h-4.32s-.48-8.64-.48-8.64l-4.11-.45-.21-4.35h-4.32s0-4.8,0-4.8h-4.32s0-4.32,0-4.32h-4.32s-.48-8.64-.48-8.64h-4.32s0-4.8,0-4.8h-4.32s-.48-8.64-.48-8.64h-4.32s0-4.8,0-4.8h-4.32s0-4.32,0-4.32h-4.32s-.21-4.35-.21-4.35l-4.11-.45-.48-8.64h-4.32s0-4.32,0-4.32h-4.32s0-4.8,0-4.8h-4.32s-.48-8.64-.48-8.64h-4.32s0-4.8,0-4.8h-4.32s0-4.32,0-4.32h-4.32s-.21-4.35-.21-4.35l-4.11-.45-.48-8.64h-4.32s0-4.32,0-4.32h-4.32s-.21-4.35-.21-4.35l-4.59-.45v-9.12Z"/>
</svg>
